<svg version="1.2" xmlns="http://www.w3.org/2000/svg" viewBox="0 0 287 248" width="287" height="248"><defs><clipPath clipPathUnits="userSpaceOnUse" id="cp1"><path d="m-1050-763h5055.54v5643.97h-5055.54z"/></clipPath><clipPath clipPathUnits="userSpaceOnUse" id="cp2"><path d="m220.9 82.15l-26.05 7.97v89.6l52.23-15.92v-89.65z"/></clipPath><linearGradient id="P" gradientUnits="userSpaceOnUse"/><linearGradient id="g1" x2="1" href="#P" gradientTransform="matrix(.522,0,0,1.056,-1050.014,4880.968)"><stop stop-color="#87b7e3"/><stop offset="1" stop-color="#478ccb"/></linearGradient><clipPath clipPathUnits="userSpaceOnUse" id="cp3"><path d="m-1050-763h5055.54v5643.97h-5055.54z"/></clipPath><clipPath clipPathUnits="userSpaceOnUse" id="cp4"><path d="m52.42 151.71v15.95l33.77 10.3v-71.09l-33.77-10.33z"/></clipPath><linearGradient id="g2" x2="1" href="#P" gradientTransform="matrix(.507,0,0,1.221,-1049.999,4880.958)"><stop stop-color="#2063a2"/><stop offset="1" stop-color="#2954a1"/></linearGradient><clipPath clipPathUnits="userSpaceOnUse" id="cp5"><path d="m168.47 26.76l-25.08 8.5v160.14l51.46-15.68v-161.9z"/></clipPath><linearGradient id="g3" x2="1" href="#P" gradientTransform="matrix(.515,0,0,1.776,-1050.009,4880.88)"><stop stop-color="#3988c8"/><stop offset="1" stop-color="#1254a1"/></linearGradient><clipPath clipPathUnits="userSpaceOnUse" id="cp6"><path d="m-1050-763h5055.54v5643.97h-5055.54z"/></clipPath><clipPath clipPathUnits="userSpaceOnUse" id="cp7"><path d="m86.19 60.79v117.17l57.2 17.44v-160.08l-0.1-0.03-25.56-7.82-31.54-9.65z"/></clipPath><linearGradient id="g4" x2="1" href="#P" gradientTransform="matrix(.458,0,0,1.421,-1049.986,4880.894)"><stop stop-color="#87b7e3"/><stop offset="1" stop-color="#478ccb"/></linearGradient><clipPath clipPathUnits="userSpaceOnUse" id="cp8"><path d="m52.42 104.59h33.91v36.96h-33.91z"/></clipPath><clipPath clipPathUnits="userSpaceOnUse" id="cp9"><path d="m86.33 55.9h57.06v64.85h-57.06z"/></clipPath><clipPath clipPathUnits="userSpaceOnUse" id="cp10"><path d="m88.04 133.09h55.35v46.23h-55.35z"/></clipPath><clipPath clipPathUnits="userSpaceOnUse" id="cp11"><path d="m143.39 106.61h51.46v37.13h-51.46z"/></clipPath><clipPath clipPathUnits="userSpaceOnUse" id="cp12"><path d="m143.29 30.68h51.56v56.57h-51.56z"/></clipPath><clipPath clipPathUnits="userSpaceOnUse" id="cp13"><path d="m194.85 79.75h52.23v43.93h-52.23z"/></clipPath></defs><style>.a{fill:#9fd8f7}.b{fill:url(#g1)}.c{fill:url(#g2)}.d{fill:none;stroke:#000;stroke-miterlimit:10;stroke-width:.5}.e{fill:none}.f{fill:url(#g3)}.g{fill:url(#g4)}.h{fill:#fff}</style><g clip-path="url(#cp1)"><path class="a" d="m199.6 59.6l-4.8-1.4v31.9l26.1-7.9 26.2-8.1z"/></g><g clip-path="url(#cp2)"><path class="b" d="m194.8 74.1h52.3v105.6h-52.3z"/></g><g clip-path="url(#cp3)"><path class="a" d="m247.1 138.1v25.7l39.6-12.1z"/></g><g clip-path="url(#cp4)"><path class="c" d="m52.4 96.5h33.8v81.5h-33.8z"/></g><path class="a" d="m52.4 96.5l33.8 10.4v-20.8l-33.7 10.3-0.1 0.1z"/><path class="a" d="m0.1 151.7l52.3 16v-33.3z"/><path fill-rule="evenodd" class="d" d="m143.4 35.3h-0.1z"/><path class="e" d="m-1050-763h5055.5v5644h-5055.5z"/><g clip-path="url(#cp5)"><path class="f" d="m143.4 17.8h51.4v177.6h-51.4z"/></g><g clip-path="url(#cp6)"><path class="a" d="m143.4 0.3v0.1-0.1l-57.2 17.5 31.5 9.7 25.6 7.8h0.1l25.1-8.5 26.4-9z"/></g><g clip-path="url(#cp7)"><path class="g" d="m86.2 17.8h57.2v177.6h-57.2z"/></g><g style="opacity:.1"><g clip-path="url(#cp8)"><path class="a" d="m52.4 126.6l26.3-22 7.5 2.3 0.1 13.9-33.9 20.7z"/></g></g><g style="opacity:.1"><g clip-path="url(#cp9)"><path class="a" d="m86.3 120.8l57.1-33.6-0.1-31.3-57 43.9z"/></g></g><g style="opacity:.1"><g clip-path="url(#cp10)"><path class="a" d="m88 178.5l55.4-45.4v10.6l-52.7 35.6z"/></g></g><g style="opacity:.1"><g clip-path="url(#cp11)"><path class="a" d="m143.4 133.1l51.4-26.5v17.1l-51.4 20z"/></g></g><path class="h" d="m104.6 35.8l17 5.1v7.5l-17-5.2z"/><path class="h" d="m104.6 45.2l17 5.1v7.5l-17-5.2z"/><path class="h" d="m104.6 54.7l17 5v7.5l-17-5.2z"/><path class="h" d="m104.6 64.1l17 5.1v7.4l-17-5.2z"/><path class="h" d="m104.6 73.5l17 5.1v7.4l-17-5.2z"/><path class="h" d="m104.6 82.9l17 5.1v7.4l-17-5.2z"/><path class="h" d="m104.6 92.3l17 5.1v7.4l-17-5.1z"/><path class="h" d="m104.6 101.7l17 5.1v7.5l-17-5.2z"/><path class="h" d="m104.6 111.2l17 5v7.5l-17-5.2z"/><path class="h" d="m104.6 120.6l17 5.1v7.4l-17-5.2z"/><path class="h" d="m104.6 130l17 5.1v7.4l-17-5.2z"/><path class="h" d="m104.6 139.4l17 5.1v7.4l-17-5.2z"/><path class="h" d="m104.6 148.8l17 5.1v31.4l-17-5.1z"/><path class="h" d="m60 107l17.1 5.1v7.4l-17.1-5.2z"/><path class="h" d="m60 116.4l17.1 5.1v7.4l-17.1-5.1z"/><path class="h" d="m60 125.8l17.1 5.1v7.5l-17.1-5.2z"/><path class="h" d="m60 135.2l17.1 5.1v31.5l-17.1-5.2z"/><g style="opacity:.1"><g clip-path="url(#cp12)"><path class="a" d="m143.3 55.9l51.5-25.2v33.4l-51.4 23.1z"/></g></g><path class="h" d="m178.1 37.1l-17 5v7.5l17-5.2z"/><path class="h" d="m178.1 46.5l-17 5.1v7.4l17-5.2z"/><path class="h" d="m178.1 55.9l-17 5.1v7.4l17-5.2z"/><path class="h" d="m178.1 65.3l-17 5.1v7.4l17-5.1z"/><path class="h" d="m178.1 74.7l-17 5.1v7.4l17-5.1z"/><path class="h" d="m178.1 84.1l-17 5.1v7.5l17-5.2z"/><path class="h" d="m178.1 93.6l-17 5v7.5l17-5.2z"/><path class="h" d="m178.1 103l-17 5.1v7.4l17-5.2z"/><path class="h" d="m178.1 112.4l-17 5.1v7.4l17-5.2z"/><path class="h" d="m178.1 121.8l-17 5.1v7.4l17-5.2z"/><path class="h" d="m178.1 131.2l-17 5.1v7.4l17-5.1z"/><path class="h" d="m178.1 140.6l-17 5.1v7.5l17-5.2z"/><path class="h" d="m178.1 150l-17 5.1v31.5l17-5.2z"/><g style="opacity:.1"><g clip-path="url(#cp13)"><path class="a" d="m194.8 106.6l52.3-26.8v16.7l-52.3 27.2z"/></g></g><path class="h" d="m228.2 97.2l-17 5v7.5l17-5.2z"/><path class="h" d="m228.2 106.6l-17 5.1v7.4l17-5.2z"/><path class="h" d="m228.2 116l-17 5.1v7.4l17-5.2z"/><path class="h" d="m228.2 125.4l-17 5.1v7.4l17-5.2z"/><path class="h" d="m228.2 134.8l-17 5.1v31.4l17-5.1z"/><path class="h" d="m63.7 232.3q0.1 0.1 0.2 0.2 0.1 0.1 0.2 0.2 0.1 0.1 0.1 0.2 0.1 0.2 0.1 0.3c0 0.4-0.3 0.6-0.6 0.5-4.3-1.6-6.5-2.4-10.7-4.1q-0.1-0.1-0.2-0.2-0.1-0.1-0.2-0.2-0.1-0.1-0.2-0.3 0-0.1 0-0.3v-46.2q0-0.1 0-0.2 0.1-0.1 0.2-0.1 0.1-0.1 0.2-0.1 0.1 0 0.2 0.1c4.2 1.7 6.3 2.5 10.5 4q0.2 0.1 0.3 0.2 0.1 0 0.2 0.2 0.1 0.1 0.1 0.2 0 0.1 0.1 0.3 0 0.1-0.1 0.2 0 0.1-0.1 0.1-0.1 0.1-0.2 0.1-0.2 0-0.3 0c-4-1.4-5.9-2.2-9.9-3.8v21.7c2.1 0.9 3.1 1.3 5.1 2.1q0.1 0 0.3 0.1 0.1 0.1 0.1 0.2 0.1 0.1 0.2 0.3 0 0.1 0 0.2 0 0.1 0 0.2-0.1 0.1-0.2 0.2-0.1 0.1-0.2 0.1-0.1 0-0.2-0.1c-2-0.7-3-1.2-5.1-2v21.9c4 1.6 6 2.4 10.1 3.8z"/><path class="h" d="m82.8 239.6c-6-1.5-6-8.3-6-8.3v-34.3c0-2.2 1.4-6.1 6.2-4.8 6 1.6 6 8.1 6 8.1q0 0.1 0 0.3-0.1 0.1-0.1 0.1-0.1 0.1-0.3 0.2-0.1 0-0.2 0-0.1-0.1-0.3-0.2-0.1 0-0.2-0.2 0-0.1-0.1-0.2 0-0.1 0-0.3c0-0.2-0.1-5.3-4.8-6.6-4.7-1.2-5 3.8-5 4.1v34.1c0 0.3 0.1 5.5 4.8 6.8 4.7 1.2 5-4 5-4.2q0-0.1 0-0.2 0.1-0.1 0.2-0.2 0.1 0 0.2-0.1 0.1 0 0.2 0.1 0.1 0 0.3 0.1 0.1 0.1 0.2 0.2 0.1 0.1 0.1 0.2 0 0.2 0 0.3c0 2.3-1.4 6.3-6.2 5z"/><path class="h" d="m102.4 244q-0.1 0-0.2-0.1-0.1 0-0.2-0.1-0.1-0.1-0.1-0.3-0.1-0.1-0.1-0.2v-46.2q0-0.1 0-0.2 0.1-0.1 0.2-0.2 0.1-0.1 0.2-0.1 0.1-0.1 0.2 0 0.2 0 0.3 0.1 0.1 0 0.2 0.1 0.1 0.1 0.1 0.3 0.1 0.1 0.1 0.2v45.6c4.2 0.7 6.3 1.1 10.5 1.6q0.1 0 0.2 0.1 0.1 0 0.2 0.1 0.1 0.1 0.2 0.3 0 0.1 0 0.2 0 0.2 0 0.3-0.1 0.1-0.2 0.2-0.1 0-0.2 0.1-0.1 0-0.2 0c-4.5-0.6-6.7-1-11.2-1.8z"/><path class="h" d="m139 246.5q0.1 0 0.2 0 0.2 0.1 0.2 0.2 0.1 0.1 0.2 0.2 0 0.1 0 0.2 0.1 0.2 0 0.3 0 0.1-0.1 0.2-0.1 0.1-0.2 0.2-0.2 0-0.3 0c-4.5-0.1-6.7-0.2-11.2-0.5q-0.2-0.1-0.3-0.1-0.1-0.1-0.2-0.2-0.1-0.1-0.1-0.2-0.1-0.2-0.1-0.3v-46.2q0-0.1 0.1-0.2 0-0.1 0.1-0.2 0.1-0.1 0.2-0.1 0.2-0.1 0.3-0.1c4.4 0.4 6.6 0.5 11.1 0.6q0.2 0 0.4 0.2 0.2 0.2 0.2 0.4 0 0.3-0.2 0.5-0.2 0.2-0.4 0.2c-4.2-0.2-6.3-0.3-10.5-0.6v21.8c2.2 0.2 3.3 0.2 5.4 0.3q0.1 0 0.3 0.1 0.1 0 0.2 0.1 0.1 0.1 0.1 0.2 0.1 0.2 0.1 0.3-0.1 0.1-0.1 0.2-0.1 0.1-0.2 0.2 0 0.1-0.2 0.2-0.1 0-0.2 0c-2.1-0.1-3.2-0.2-5.4-0.3v21.9c4.2 0.3 6.4 0.4 10.6 0.5z"/><path class="h" d="m158.8 247.6c-4.8 0.2-6.1-4.2-6.1-6.5q0-0.1 0-0.2 0.1-0.1 0.2-0.2 0.1-0.1 0.2-0.1 0.1-0.1 0.2-0.1 0.2 0 0.3 0 0.1 0.1 0.2 0.2 0.1 0.1 0.1 0.2 0.1 0.1 0.1 0.2c0 0.3 0 5.5 4.8 5.2 4.8-0.2 5-5.3 5-5.7v-11.3c0-1.9-0.7-3.3-1.6-4.1q-0.4-0.3-0.8-0.5-0.3-0.2-0.8-0.3-0.4-0.1-0.8-0.1-0.4-0.1-0.8 0h-0.3q-0.5 0.1-1.1 0-0.5 0-1.1-0.2-0.5-0.1-1-0.4-0.5-0.3-0.9-0.6c-1.3-1.1-2-2.8-2-5v-11.2c0.1-2.3 1.6-6.7 6.4-6.9 4.9-0.3 6.2 3.9 6.2 6.2q0 0.2-0.1 0.3 0 0.1-0.1 0.2-0.1 0.1-0.2 0.2-0.1 0-0.3 0-0.1 0-0.2 0-0.1 0-0.2-0.1-0.1-0.1-0.2-0.2 0-0.1 0-0.3c0-0.2-0.1-5.3-4.9-5.1-4.8 0.3-5.1 5.4-5.1 5.7 0 4.4 0.1 6.7 0.1 11.1 0 1.9 0.4 3.3 1.5 4.2q0.3 0.2 0.7 0.4 0.3 0.2 0.7 0.3 0.4 0.1 0.9 0.2 0.4 0 0.8 0c0.1 0 0.2-0.1 0.3-0.1 0.1 0 2.5-0.3 4.2 1.2 1.2 1 2 2.7 2 4.9v11.4c-0.1 2.3-1.4 6.8-6.3 7.1z"/><path class="h" d="m189.8 242.7q0.1-0.1 0.2 0 0.1 0 0.2 0.1 0.1 0.1 0.1 0.2 0.1 0.1 0.1 0.2 0 0.1-0.1 0.2 0 0.2-0.1 0.3-0.1 0.1-0.2 0.1-0.1 0.1-0.3 0.1c-4.3 0.8-6.5 1.2-10.9 1.8q-0.2 0-0.3 0-0.1-0.1-0.2-0.1-0.1-0.1-0.1-0.2-0.1-0.1-0.1-0.3 0-0.1 0.1-0.2 0-0.1 0.1-0.2 0.1-0.1 0.2-0.2 0.1-0.1 0.3-0.1c1.9-0.2 2.9-0.4 4.9-0.7v-45c-2 0.3-3 0.5-4.9 0.7q-0.2 0.1-0.3 0-0.1 0-0.2-0.1-0.1-0.1-0.1-0.2-0.1-0.1-0.1-0.2 0-0.1 0.1-0.3 0-0.1 0.1-0.2 0.1-0.1 0.2-0.2 0.1 0 0.3 0c4.4-0.6 6.6-1 10.9-1.8q0.2 0 0.3 0 0.1 0 0.2 0.1 0.1 0.1 0.1 0.2 0.1 0.1 0.1 0.2 0 0.2-0.1 0.3 0 0.1-0.1 0.2-0.1 0.1-0.2 0.2-0.1 0.1-0.3 0.1c-1.9 0.3-2.8 0.5-4.8 0.8v45c2-0.3 2.9-0.5 4.8-0.8z"/><path fill-rule="evenodd" class="h" d="m215.2 237.3q0 0.1 0 0.3-0.1 0.1-0.1 0.2-0.1 0.1-0.2 0.2-0.1 0.1-0.3 0.2-0.1 0-0.2 0-0.1 0-0.2 0-0.1-0.1-0.2-0.2 0-0.1 0-0.2-1.3-11-2.6-22c-1.7 0.5-2.6 0.7-4.3 1.1q-1.3 11.7-2.7 23.5 0 0.1-0.1 0.2 0 0.1-0.1 0.2-0.1 0.1-0.2 0.2-0.1 0-0.2 0.1h-0.1q-0.1 0-0.2 0-0.1-0.1-0.2-0.2-0.1 0-0.1-0.1-0.1-0.2-0.1-0.3 2.8-23.9 5.6-47.8 0-0.1 0-0.3 0.1-0.1 0.2-0.2 0-0.1 0.2-0.2 0.1 0 0.2-0.1 0.1 0 0.2 0 0.1 0 0.2 0.1 0.1 0.1 0.1 0.1 0.1 0.1 0.1 0.2 2.7 22.5 5.3 45zm-5.9-39.2c-0.8 7-1.2 10.5-2 17.5 1.6-0.4 2.4-0.6 3.9-1-0.7-6.6-1.1-9.9-1.9-16.5z"/><path fill-rule="evenodd" class="h" d="m233.6 208.4c-1.7 0.6-2.6 1-4.3 1.6q4.9 9.2 9.8 18.5 0 0.1 0 0.2 0 0.2 0 0.3-0.1 0.1-0.1 0.3-0.1 0.1-0.2 0.2l-0.3 0.1q0 0.1-0.1 0.1-0.1 0-0.2 0 0 0-0.1-0.1-0.1 0-0.1-0.1c-3.6-6.8-5.4-10.2-9.1-17.1v20.3q0 0.2 0 0.3-0.1 0.1-0.1 0.2-0.1 0.1-0.2 0.2-0.1 0.1-0.3 0.2-0.1 0-0.2 0-0.1 0-0.2-0.1-0.1 0-0.1-0.1-0.1-0.1-0.1-0.2v-46.3q0-0.1 0.1-0.3 0-0.1 0.1-0.2 0.1-0.1 0.2-0.2 0.1-0.1 0.2-0.2c2.1-0.7 3.2-1.1 5.3-1.9 0.3-0.1 2.3-1 3.9-0.1 1.2 0.7 1.8 2.1 1.8 4.3v11.3q0 0.7-0.1 1.5-0.1 0.8-0.3 1.5-0.3 0.7-0.6 1.4-0.3 0.7-0.8 1.3-0.4 0.5-0.8 0.9-0.4 0.4-0.8 0.8-0.5 0.3-1 0.6-0.5 0.4-1 0.6-0.1 0-0.1 0.1 0 0-0.1 0 0 0 0 0.1-0.1 0-0.1 0zm0-1.3q0-0.1 0-0.1 0.5-0.1 0.9-0.4 0.5-0.2 0.8-0.5 0.4-0.3 0.8-0.7 0.3-0.3 0.6-0.7 0.4-0.5 0.6-1.1 0.3-0.5 0.5-1.1 0.1-0.6 0.2-1.2 0.1-0.6 0.1-1.2v-11.3c0-1.8-0.5-3.1-1.5-3.5-1.2-0.8-3 0-3 0q0 0 0 0.1c-1.9 0.7-2.8 1-4.7 1.7v21.7c1.9-0.7 2.8-1 4.7-1.7z"/></svg>